# xmcd CD database file
#
# Track frame offsets:
#	150
#	21328
#	38063
#	56970
#
# Disc length: 1037 seconds
#
# Revision: 1
# Processed by: cddbd v1.5.1PL0 Copyright (c) Steve Scherf et al.
# Submitted via: CDex 1.51
#
DISCID=31040b04
DTITLE=サニーデイ・サービス - コズミック・ヒッピー
DYEAR=1994
DGENRE=JPop
TTITLE0=コズミック・ヒッピー
TTITLE1=トーキン・スイート、トーキン・ソウル
TTITLE2=エアプレイン・ソング
TTITLE3=ピクチャー・イン・ザ・スカイ
EXTD=YEAR: 1994.11/21
EXTT0=
EXTT1=
EXTT2=
EXTT3=
PLAYORDER=
